 <svg  version="1.0" xmlns="http://www.w3.org/2000/svg"  width="300.000000pt" height="300.000000pt" viewBox="0 0 300.000000 300.000000"  preserveAspectRatio="xMidYMid meet">  <g transform="translate(0.000000,300.000000) scale(0.100000,-0.100000)" fill="#cc2828" stroke="none"> <path d="M1301 2784 c-175 -24 -406 -88 -461 -127 -40 -28 -114 -127 -151 -202 -74 -151 -85 -291 -35 -449 28 -88 13 -87 -27 2 -107 238 -60 470 136 680 37 39 34 39 -39 7 -142 -63 -286 -191 -343 -304 -56 -111 -74 -197 -74 -361 -1 -123 2 -155 21 -210 23 -70 23 -84 0 -48 -49 76 -87 224 -88 343 l-1 60 -26 -50 c-101 -194 -116 -414 -42 -604 15 -41 26 -77 24 -80 -3 -2 -26 10 -50 27 -25 18 -48 32 -50 32 -11 0 -3 -27 34 -109 78 -175 113 -314 150 -596 36 -273 43 -358 50 -575 l6 -215 63 -3 c57 -3 63 -1 58 15 -42 142 -66 321 -66 487 0 112 3 136 15 136 23 0 60 -74 110 -220 54 -157 85 -214 124 -234 42 -22 185 -37 360 -38 126 0 164 3 199 17 59 24 130 107 194 227 89 166 86 163 143 163 56 0 47 11 155 -187 56 -101 126 -180 183 -203 73 -30 476 -18 552 17 41 18 78 86 123 224 48 147 88 227 116 232 18 4 18 -4 13 -180 -4 -142 -11 -210 -31 -304 -14 -67 -29 -129 -32 -138 -6 -15 1 -17 57 -14 l64 3 6 225 c8 266 22 385 90 740 115 603 123 667 95 784 -18 77 -50 156 -63 155 -4 0 -29 -44 -55 -98 -44 -91 -101 -179 -82 -126 51 144 67 200 85 305 11 68 21 151 22 184 l2 60 -40 7 c-22 4 -65 17 -95 29 -84 34 -265 40 -357 12 -145 -44 -260 -149 -339 -309 -26 -52 -49 -92 -51 -89 -10 9 29 135 64 206 63 130 184 227 332 265 89 23 222 30 310 16 40 -6 75 -10 77 -8 2 2 -20 21 -49 43 -87 65 -263 148 -393 184 -110 30 -126 32 -216 26 -442 -29 -729 -243 -802 -598 -9 -42 -16 -101 -16 -130 -1 -44 -3 -50 -12 -34 -15 26 -4 213 17 296 54 213 217 389 441 478 105 42 228 71 325 79 44 3 82 9 84 13 6 9 -54 27 -174 52 -131 27 -489 34 -640 12z m-607 -1084 c280 -107 676 -157 1046 -131 314 22 541 68 699 142 46 21 87 39 92 39 4 0 4 -12 0 -28 -32 -111 -19 -290 34 -467 57 -188 105 -395 105 -453 0 -26 -143 -4 -228 35 -41 19 -109 42 -151 50 -70 15 -85 15 -182 -1 -117 -18 -409 -83 -418 -92 -3 -3 2 -10 12 -15 28 -16 20 -29 -39 -56 -44 -20 -72 -25 -129 -25 -57 0 -85 5 -129 25 -59 27 -67 40 -39 56 10 5 16 12 13 14 -9 9 -259 65 -392 88 -121 21 -131 22 -205 7 -44 -9 -113 -31 -154 -50 -53 -24 -96 -37 -147 -41 -72 -7 -72 -7 -72 17 0 45 50 274 90 409 21 72 44 159 51 192 14 68 18 266 6 309 -10 34 -18 35 137 -24z m440 -960 c59 -17 119 -29 134 -28 33 2 58 -11 97 -52 26 -27 30 -39 30 -88 0 -47 -8 -73 -46 -152 -54 -111 -108 -176 -173 -209 -42 -21 -61 -23 -171 -23 -233 1 -321 25 -372 101 -46 69 -92 273 -78 347 17 93 118 130 356 133 100 1 130 -3 223 -29z m1268 1 c77 -25 104 -52 113 -114 13 -87 -43 -309 -91 -360 -14 -15 -37 -33 -52 -41 -41 -20 -181 -38 -312 -38 -106 0 -122 3 -167 26 -28 14 -68 45 -88 68 -53 60 -128 220 -133 284 -4 46 -1 54 28 88 41 46 66 60 105 58 17 -1 75 12 130 28 95 29 107 30 250 26 118 -3 165 -8 217 -25z"/> <path d="M104 749 c-15 -17 -20 -40 -22 -114 -6 -147 39 -324 127 -505 l36 -75 3 38 c2 23 -3 48 -12 62 -53 81 -101 268 -94 368 5 69 33 103 75 92 21 -5 23 -2 23 38 0 49 -19 81 -60 102 -39 20 -53 19 -76 -6z"/> <path d="M2883 750 c-40 -24 -53 -48 -53 -100 0 -37 2 -40 23 -35 15 4 32 -1 48 -14 22 -18 24 -26 24 -113 -1 -104 -25 -199 -76 -301 -21 -41 -29 -70 -27 -95 3 -37 3 -36 42 43 83 172 130 364 124 504 -2 70 -7 93 -22 110 -24 26 -42 26 -83 1z"/> <path d="M190 390 c0 -7 3 -10 7 -7 3 4 3 10 0 14 -4 3 -7 0 -7 -7z"/> <path d="M200 362 c0 -19 40 -136 51 -146 20 -21 8 35 -21 96 -16 34 -30 57 -30 50z"/> <path d="M2837 306 c-28 -62 -34 -92 -18 -81 10 6 55 134 50 140 -2 1 -16 -25 -32 -59z"/> </g> </svg> 